<svg xmlns="http://www.w3.org/2000/svg" viewBox="0 0 122 125" enable-background="new 0 0 122 125"><style type="text/css">.st0{opacity:0.7;} .st1{fill:#D6D6D6;}</style><path class="st1" d="M61.1 7.3h-.3c-30.3.1-55 24.8-55 55.2 0 30.4 24.7 55.1 55.1 55.2h.2c30.4-.1 55.1-24.8 55.1-55.2 0-30.4-24.7-55.1-55.1-55.2zm35.9 19.8c-4.4 2.3-9 4.2-13.8 5.7-2.6-8.3-6.2-15-10.4-19.4 9.3 2.3 17.6 7.1 24.2 13.7zm-33.6-14.6c5.9 1.7 11.7 9.5 15.5 21.5-5 1.2-10.2 1.9-15.5 2.1v-23.6zm-4.8-.1v23.7c-5.4-.2-10.6-.9-15.6-2.1 3.8-12.1 9.7-19.9 15.6-21.6zm-9.5 1.1c-4.2 4.4-7.8 11.1-10.4 19.3-4.8-1.5-9.3-3.4-13.7-5.7 6.5-6.6 14.8-11.4 24.1-13.6zm-24.1 84.3c4.3-2.3 8.9-4.2 13.7-5.7 2.6 8.2 6.1 14.9 10.4 19.4-9.3-2.2-17.6-7.1-24.1-13.7zm33.6 14.8c-5.9-1.7-11.8-9.5-15.7-21.6 5-1.2 10.3-1.9 15.7-2.1v23.7zm4.8-.1v-23.6c5.3.2 10.5.9 15.5 2.1-3.7 11.9-9.6 19.8-15.5 21.5zm9.3-.9c4.3-4.4 7.9-11.2 10.4-19.4 4.8 1.5 9.4 3.4 13.8 5.7-6.5 6.6-14.8 11.4-24.2 13.7zm27.3-17.1c-4.9-2.7-10.2-4.9-15.6-6.6.5-2 .9-4 1.3-6.1-1.3-.2-2.4-.5-3.3-1l-.9-.5c-.4 2.2-.8 4.4-1.4 6.5-5.4-1.3-11-2.1-16.7-2.2v-2.7c-.9.2-1.8.2-2.8.2-.7 0-1.4 0-2-.1v2.6c-5.8.2-11.4.9-16.9 2.3-.6-2.3-1.1-4.8-1.5-7.4-1.1.8-2.5 1.5-4 1.9h-.1c.4 2.3.9 4.5 1.4 6.6-5.4 1.7-10.6 3.9-15.5 6.5-6.7-8.1-10.9-18.4-11.4-29.6h13.6c0-.3-.1-.8-.1-1.3s0-.9.1-1.3c0-.3.1-.6.2-.8.1-.2.2-.3.4-.4s.3-.1.6-.1l-14.8-.9c.5-11.2 4.7-21.5 11.4-29.6 4.9 2.7 10.1 4.9 15.5 6.5-.7 2.9-1.3 6-1.8 9.2l1 .3c1.3.4 2.3.9 3.2 1.6.5-3.5 1.1-6.9 1.9-10 5.4 1.3 11.1 2.1 16.9 2.3v6.2c1.4-.5 3-.7 4.8-.7v-5.5c5.7-.2 11.3-.9 16.7-2.2.8 3 1.4 6.2 1.8 9.6l1-.6c.9-.5 2-.8 3.2-1-.5-3.2-1.1-6.2-1.8-9.1 5.5-1.7 10.7-3.9 15.6-6.6 6.7 8.1 10.9 18.4 11.4 29.6h-10.4c.1 1.2.1 2.4.1 3.8v1h10.3c-.5 11.2-4.7 21.5-11.4 29.6z"/><g class="st0"><path class="st1" d="M45.9 70.5c0 1.6-.3 3-.9 4.2-.6 1.2-1.4 2.2-2.5 3.1-1.1.8-2.3 1.5-3.8 1.9-1.5.4-3.1.6-4.9.6-1.1 0-2.1-.1-3-.2-.9-.2-1.8-.3-2.5-.6-.7-.2-1.3-.5-1.8-.7-.5-.2-.8-.4-.9-.6-.1-.1-.3-.3-.3-.4l-.2-.6c-.1-.2-.1-.5-.1-.8v-1.2c0-.8.1-1.3.2-1.6.1-.3.3-.4.6-.4.2 0 .4.1.8.3.4.2.9.5 1.5.7.6.3 1.3.5 2.2.7.7.1 1.7.3 2.7.3.9 0 1.7-.1 2.4-.3.7-.2 1.3-.5 1.7-.9.5-.4.8-.8 1.1-1.4.2-.5.4-1.1.4-1.8s-.1-1.4-.4-2c-.3-.6-.7-1.1-1.3-1.5s-1.3-.7-2.1-1c-.8-.2-1.8-.3-3-.3h-2.8c-.2 0-.4 0-.5-.1-.1-.1-.3-.2-.4-.4-.1-.2-.2-.4-.2-.7 0-.3-.1-.7-.1-1.2s0-.9.1-1.2c0-.3.1-.5.2-.7.1-.2.2-.3.3-.3.1-.1.3-.1.5-.1h2.7c.9 0 1.8-.1 2.5-.3.7-.2 1.3-.5 1.8-.9s.9-.9 1.1-1.5c.3-.6.4-1.2.4-1.9 0-.5-.1-1-.3-1.5-.2-.5-.4-.9-.8-1.2-.3-.3-.8-.6-1.3-.8-.6-.2-1.2-.3-1.9-.3-.8 0-1.6.1-2.4.4-.7.3-1.4.5-2 .8-.6.3-1.1.6-1.5.8-.4.3-.7.4-.9.4-.1 0-.2 0-.3-.1-.1-.1-.2-.2-.2-.3-.1-.2-.1-.4-.1-.7v-2.2c0-.3 0-.5.1-.7 0-.2.1-.3.2-.5.1-.1.2-.3.4-.4s.5-.4 1-.7c.5-.3 1.1-.6 1.9-.9.8-.3 1.6-.5 2.6-.7 1-.2 2.1-.3 3.2-.3 1.5 0 2.9.2 4 .5 1.2.4 2.2.9 3 1.5.8.7 1.4 1.5 1.8 2.5.4 1 .6 2.1.6 3.3 0 1-.1 1.8-.4 2.7-.2.8-.6 1.6-1.1 2.2-.5.6-1.1 1.2-1.8 1.6-.7.5-1.5.8-2.4 1v.1c1.1.1 2.1.4 3 .8.9.4 1.6 1 2.2 1.6.6.6 1.1 1.4 1.4 2.2.4.9.5 1.8.5 2.7zM71.7 69.2c0 1.6-.2 3.1-.7 4.4-.5 1.4-1.2 2.5-2.1 3.5-.9 1-2.1 1.7-3.5 2.3-1.4.6-3 .8-4.8.8-1.5 0-2.7-.2-3.8-.5-1.1-.3-2-.8-2.8-1.4-.8-.6-1.4-1.4-1.9-2.3-.5-.9-.9-1.9-1.2-3-.3-1.1-.5-2.3-.6-3.6-.1-1.3-.2-2.7-.2-4.2 0-1.2.1-2.5.2-3.9.1-1.3.4-2.7.7-4 .3-1.3.8-2.5 1.5-3.7.6-1.2 1.4-2.2 2.4-3.1 1-.9 2.2-1.6 3.6-2.1s3.1-.8 5-.8c.6 0 1.2 0 1.9.1.6.1 1.2.2 1.7.3.5.1 1 .2 1.4.4s.6.3.7.4c.1.1.2.2.3.4l.2.4c0 .2.1.3.1.6v2c0 .3-.1.6-.1.8s-.2.3-.3.4c-.1.1-.3.1-.4.1-.2 0-.4-.1-.8-.2-.3-.1-.7-.2-1.1-.4-.4-.1-1-.2-1.5-.3-.6-.1-1.3-.1-2.1-.1-1.3 0-2.4.2-3.3.7-.9.5-1.6 1.1-2.2 2-.6.8-1 1.8-1.2 2.9-.3 1.1-.4 2.3-.4 3.5l1.2-.7 1.5-.6c.5-.2 1.1-.3 1.8-.4.6-.1 1.3-.2 2-.2 1.6 0 2.9.2 4.1.7 1.1.4 2.1 1.1 2.8 1.9.7.8 1.2 1.8 1.6 2.9.2 1.3.3 2.6.3 4zm-6.2.6c0-.8-.1-1.5-.2-2.2-.1-.6-.4-1.1-.7-1.6-.3-.4-.8-.8-1.3-1-.5-.2-1.2-.3-1.9-.3-.5 0-.9 0-1.3.1l-1.3.3c-.4.1-.8.3-1.2.5-.4.2-.8.4-1.1.6 0 1.7.1 3.2.3 4.3.2 1.2.5 2.1.9 2.8.4.7.9 1.2 1.4 1.4.6.3 1.2.4 2 .4.7 0 1.4-.1 2-.4.6-.3 1-.7 1.4-1.2.4-.5.7-1.1.8-1.8.1-.4.2-1.1.2-1.9zM97.1 63.9c0 2.5-.2 4.8-.6 6.8-.4 2-1.1 3.7-2 5.2-.9 1.4-2.1 2.5-3.6 3.3-1.5.8-3.3 1.1-5.4 1.1-2.2 0-3.9-.4-5.3-1.1-1.4-.7-2.5-1.8-3.3-3.2-.8-1.4-1.4-3.1-1.7-5.1-.3-2-.5-4.3-.5-6.8s.2-4.8.6-6.8c.4-2 1.1-3.8 2-5.2.9-1.4 2.1-2.5 3.6-3.3 1.5-.8 3.2-1.1 5.4-1.1s3.9.4 5.3 1.1c1.4.7 2.5 1.8 3.4 3.2.8 1.4 1.4 3.1 1.7 5.1.2 2 .4 4.2.4 6.8zm-6.5.3c0-1.5 0-2.8-.1-3.9s-.2-2.1-.4-3c-.2-.8-.4-1.6-.6-2.1-.3-.6-.6-1-.9-1.4-.4-.3-.8-.6-1.2-.7-.5-.1-1-.2-1.5-.2-1 0-1.7.2-2.4.7-.6.5-1.1 1.2-1.5 2.1-.4.9-.6 2.1-.8 3.4-.1 1.4-.2 3-.2 4.8 0 2.2.1 4.1.3 5.5.2 1.5.5 2.6.8 3.5.4.9.9 1.5 1.5 1.8.6.3 1.3.5 2.2.5.6 0 1.2-.1 1.7-.3.5-.2.9-.5 1.3-.9s.7-.9.9-1.5c.2-.6.4-1.3.6-2.1.2-.8.3-1.7.3-2.7v-3.5z"/></g></svg>
